<svg width="95" height="85" viewBox="0 0 95 85" fill="none" xmlns="http://www.w3.org/2000/svg">
<g clip-path="url(#clip0_1117_268)">
<path d="M47.6657 33.3691C42.6403 33.3691 38.5664 37.42 38.5664 42.417C38.5664 47.414 42.6403 51.4648 47.6657 51.4648C52.6911 51.4648 56.765 47.414 56.765 42.417C56.765 37.42 52.6911 33.3691 47.6657 33.3691Z" fill="white"/>
<path d="M94.9933 42.4991C94.9933 35.3958 88.378 29.1659 77.8452 25.0659C77.9859 24.1426 78.1133 23.2293 78.2038 22.3326C79.2426 12.126 76.7694 4.75944 71.2433 1.58614C65.0603 -1.96383 56.3271 0.612813 47.4966 7.63941C38.6662 0.612813 29.933 -1.96383 23.75 1.58614C18.2239 4.75944 15.7507 12.126 16.7895 22.3326C16.88 23.2293 17.004 24.1459 17.1481 25.0726C16.2701 25.4059 15.4088 25.7592 14.5811 26.1292C5.17761 30.3325 0 36.1525 0 42.4991C0 49.6023 6.61528 55.8323 17.1481 59.9322C17.004 60.8556 16.88 61.7689 16.7895 62.6655C15.7507 72.8721 18.2239 80.2387 23.75 83.412C25.6499 84.4833 27.8028 85.031 29.9866 84.9986C35.2212 84.9986 41.3338 82.2587 47.4966 77.3587C53.6562 82.2587 59.7721 84.9986 65.0134 84.9986C67.1971 85.0305 69.3499 84.4828 71.25 83.412C76.7761 80.2387 79.2493 72.8721 78.2105 62.6655C78.12 61.7689 77.9926 60.8556 77.8519 59.9322C88.3847 55.8389 95 49.599 95 42.4991M64.9732 4.49944C66.3773 4.46575 67.7652 4.80397 68.9946 5.47943C72.8318 7.68274 74.5543 13.6593 73.7165 21.8759C73.6595 22.4359 73.5925 23.0026 73.5121 23.5726C69.1324 22.2607 64.6477 21.3251 60.1072 20.7759C57.3548 17.1368 54.294 13.7389 50.9584 10.6194C56.1964 6.59275 61.1126 4.49944 64.9698 4.49944M63.1702 51.499C61.4753 54.425 59.6297 57.2621 57.6408 59.9989C54.2694 60.3434 50.8824 60.5147 47.4933 60.5122C44.1053 60.5146 40.7195 60.3432 37.3492 59.9989C35.3655 57.262 33.5255 54.4249 31.8365 51.499C30.1416 48.581 28.6013 45.577 27.2219 42.4991C28.6013 39.4212 30.1416 36.4171 31.8365 33.4992C33.5228 30.585 35.3572 27.758 37.3324 25.0292C40.7089 24.6762 44.1016 24.5004 47.4966 24.5026C50.8846 24.5005 54.2705 24.6719 57.6408 25.0159C59.6228 27.7489 61.4638 30.5803 63.1568 33.4992C64.8503 36.4178 66.3906 39.4218 67.7715 42.4991C66.3906 45.5763 64.8503 48.5803 63.1568 51.499M70.0771 48.1657C71.1407 51.0504 72.0138 54.0011 72.691 56.9989C69.7523 57.9102 66.7566 58.6284 63.7232 59.1489C64.876 57.42 65.9931 55.6212 67.0744 53.7523C68.1434 51.9056 69.1454 50.0423 70.0905 48.179M41.1327 64.8088C43.2172 64.9355 45.3452 65.0088 47.5 65.0088C49.6548 65.0088 51.7962 64.9355 53.8841 64.8088C51.9045 67.1672 49.7719 69.3941 47.5 71.4754C45.233 69.3945 43.1059 67.1675 41.1327 64.8088ZM31.2735 59.1422C28.2391 58.624 25.2422 57.9081 22.3023 56.9989C22.9767 54.0058 23.8465 51.0596 24.9062 48.179C25.8378 50.0423 26.8365 51.9056 27.9223 53.7523C29.008 55.5989 30.1307 57.4189 31.2735 59.1489M24.9062 36.8158C23.8503 33.9459 22.9828 31.0108 22.309 28.0292C25.2416 27.119 28.2305 26.3987 31.2567 25.8726C30.1106 27.5959 28.9879 29.3825 27.9055 31.2458C26.8231 33.1092 25.8345 34.9491 24.8894 36.8158M53.8639 20.186C51.7795 20.0593 49.6515 19.986 47.4799 19.986C45.3262 19.986 43.2038 20.0526 41.1126 20.186C43.0858 17.8273 45.2129 15.6003 47.4799 13.5194C49.7527 15.5998 51.8853 17.8268 53.8639 20.186ZM67.0677 31.2458C65.9819 29.3747 64.8593 27.5748 63.6997 25.8459C66.7411 26.3664 69.7447 27.0858 72.691 27.9992C72.015 30.9919 71.1452 33.938 70.0871 36.8191C69.1555 34.9558 68.1535 33.0925 67.0711 31.2492M21.2902 21.8793C20.4424 13.666 22.1749 7.68608 26.0087 5.48277C27.2386 4.80835 28.6262 4.47021 30.0302 4.50277C33.8874 4.50277 38.8036 6.59609 44.0416 10.6227C40.7038 13.7444 37.6408 17.1446 34.8861 20.7859C30.3469 21.3377 25.8626 22.2699 21.4812 23.5726C21.4042 23.0026 21.3338 22.4393 21.2802 21.8793M16.4377 30.2325C16.9538 30.0103 17.4799 29.7881 18.0161 29.5659C19.0702 33.9893 20.4996 38.3159 22.2889 42.4991C20.4962 46.6905 19.0657 51.0261 18.0127 55.4589C9.47386 51.9756 4.52413 47.149 4.52413 42.4991C4.52413 38.0924 8.8807 33.6225 16.4377 30.2325ZM26.0087 79.5154C22.1749 77.3121 20.4424 71.3321 21.2902 63.1189C21.3438 62.5589 21.4142 61.9955 21.4913 61.4222C25.871 62.7337 30.3557 63.6694 34.8961 64.2188C37.6494 67.8593 40.7101 71.2594 44.0449 74.3821C36.7426 79.992 30.0704 81.842 26.0188 79.5154M73.7131 63.1189C74.5509 71.3354 72.8284 77.3121 68.9913 79.5154C64.943 81.8487 58.2674 79.992 50.9685 74.3821C54.3022 71.2593 57.3618 67.8593 60.1139 64.2188C64.6544 63.6697 69.1391 62.7341 73.5188 61.4222C73.5992 61.9955 73.6662 62.5589 73.7232 63.1189M77.0007 55.4523C75.9448 51.022 74.5131 46.6887 72.7212 42.4991C74.5124 38.3071 75.9429 33.9716 76.9973 29.5392C85.5194 33.0225 90.4826 37.8491 90.4826 42.4991C90.4826 47.149 85.5328 51.9756 76.994 55.4589" fill="white"/>
</g>
<defs>
<clipPath id="clip0_1117_268">
<rect width="95" height="85" fill="white"/>
</clipPath>
</defs>
</svg>
