<svg width="97" height="127" viewBox="0 0 97 127" fill="none" xmlns="http://www.w3.org/2000/svg">
<g clip-path="url(#clip0_1117_260)">
<path d="M48.254 63.0439C50.2955 52.9172 60.16 46.3625 70.287 48.4041C80.4137 50.4456 86.9684 60.3103 84.9268 70.4371C82.8853 80.5641 73.0206 87.1185 62.8938 85.077C52.7668 83.0354 46.2124 73.171 48.254 63.0439Z" fill="#1ABCFE"/>
<path d="M4.18758 92.3237C6.2291 82.197 16.0936 75.6423 26.2206 77.6839L44.557 81.3805L40.8604 99.7169C38.8188 109.844 28.9544 116.398 18.8274 114.357C8.70049 112.315 2.146 102.451 4.18758 92.3237Z" fill="#0ACF83"/>
<path d="M59.3451 8.03491L51.952 44.7077L70.2884 48.4042C80.4154 50.4458 90.2798 43.8914 92.3214 33.7645C94.3629 23.6376 87.8085 13.7731 77.6815 11.7315L59.3451 8.03491Z" fill="#FF7262"/>
<path d="M18.9727 18.978C16.9312 29.1049 23.4857 38.9694 33.6126 41.0109L51.949 44.7075L59.3422 8.03476L41.0057 4.33818C30.8788 2.29661 21.0143 8.85109 18.9727 18.978Z" fill="#F24E1E"/>
<path d="M11.5821 55.6509C9.54053 65.7779 16.095 75.6423 26.222 77.6839L44.5584 81.3805L51.9515 44.7076L33.6151 41.011C23.4882 38.9695 13.6236 45.5241 11.5821 55.6509Z" fill="#A259FF"/>
</g>
<defs>
<clipPath id="clip0_1117_260">
<rect width="75.5909" height="113.386" fill="white" transform="translate(22.4076) rotate(11.3979)"/>
</clipPath>
</defs>
</svg>
